<?xml version="1.0"?><svg width="1024" height="800" xmlns="http://www.w3.org/2000/svg">
 <title>London Skyline blank and white</title>

 <g>
  <title>Layer 1</title>
  <g display="inline" id="layer12">
   <rect height="20.8589" width="1026.97" y="772.284" x="-0.9877" fill-rule="nonzero" fill="#333333" id="rect2693"/>
   <rect height="10.9603" width="1026.96" y="790.035" x="-0.987399" fill-rule="nonzero" fill="#000000" id="rect3848"/>
  </g>
  <g display="inline" id="layer10">
   <path d="m712.506653,776.504761c-0.888794,2.772278 -4.756958,6.673828 -5.092041,6.906921c-26.780212,18.671936 -97.585632,21.822083 -136.077026,-2.314636c-1.521973,-0.951965 -8.348328,-8.50293 -8.348328,-8.703674c-6.917236,-51.913452 -48.590759,-369.630737 67.362366,-492.621674c-0.830017,-0.730927 12.504517,-0.730927 12.504517,-0.730927c122.226013,108.021271 75.59375,496.857544 69.650513,497.463989z" stroke-width="0.163531" stroke-miterlimit="4" stroke="#000000" fill-rule="evenodd" fill="#000000" id="path3090"/>
  </g>
  <g display="inline" id="layer9">
   <path d="m710.105286,791.676025l0,-12.633057l0.902771,-1.405396l-0.045715,-41.049316c0,0 -1.30658,-2.526611 -1.036072,-2.947632c-0.091309,-0.492065 -0.091309,-3.155457 -0.091309,-3.155457l1.310059,0l0,-38.314575l-1.21875,-1.334412l0,-1.192322l1.21875,0.071045l-1.21875,-2.247681l0,-2.105408l-1.598267,-1.432922l0,-1.864929l1.506958,-1.613281l0,-2.455383l1.03949,-1.121094l0,-8.985291l-0.948181,0l-0.523499,-1.405518l0,-1.328979l0.555054,-0.864014l4.745544,0l0,6.617126l0.948486,0l0,1.121338l1.935364,0l0,-1.121338l2.659119,0l0,1.405823l1.534973,0l0,1.334167l1.306824,0l0,0.836853l0.927246,0.388123l0,-4.949341l0.74115,-2.099915l0.628723,-0.984436l6.354126,0l0,1.121277l7.43988,0l0,-1.471252l6.983093,0l0,1.400085l18.209412,0l0,-1.684509l6.89502,0l0,1.684509l18.434204,0l0,-1.892212l6.76178,0l0,1.892212l17.756226,0l0,-1.821167l8.068481,0l0,1.613159l6.445801,0l0,-1.542053l-0.990784,0l0,-2.739746l-0.72345,0l0,-2.313538l1.984436,0l0,-17.718933l-1.30658,0l0,-5.020386l0.58667,0l0,-35.049805l0,-7.087708l-1.577209,-2.455383l0,-2.138428l2.072571,-1.23053l0,-5.507263l-0.569153,-0.235046l0,-1.410706l2.508118,-2.455688l3.695313,-1.722778l3.965576,0l0,-15.997925l-1.513855,-1.81134l0,-2.977051l1.559509,0l0,-0.967407l0.65686,0l-0.126343,-0.731873l-0.512878,0l-0.607544,-0.94873l0,-1.098267l1.728088,-1.553162l0,-3.525818l0.762146,0c1.239868,-16.313416 7.453796,-47.789001 26.088318,-58.031342l0,-2.237213l0.807617,0l0,-1.389099c0,0 -1.443604,0.233521 -1.643921,-1.284393c0,-0.39682 -0.080505,-1.668182 0.853821,-2.253601l0.569092,-0.063171l0,-4.736542l0.470459,0l0,-2.561768l0.565491,0l0,2.31601l1.194397,0l0,-4.069794l-0.653442,0l0,-2.456024l1.261047,0l0,-17.823792l-1.398071,-1.754333l0,-1.403259l1.521057,0l0,-5.58905l1.436768,2.23288l0,2.728699l1.113342,0l0,-10.12204l-1.464905,0l0,-1.786102l0.829041,0l0,-5.458496c0,0 1.879272,-4.614471 3.028137,-4.614471l0,-1.686737l-0.987122,-0.794098l0,-0.793976l1.081848,0l0,-4.290344l0.83606,0c0,0 -0.709717,-0.754669 -0.790466,-1.473816l-0.021057,-1.648895c0,0 0.291687,-0.807129 0.632385,-0.842194c0.382751,-0.039978 0.449463,-0.034912 0.449463,-0.034912l0,-0.91391c-3.249146,-2.481201 -0.698914,-7.214478 -0.020996,-6.723236l0.087891,-8.748169l0.544312,-4.736481l0.548035,4.736481l0.08783,8.748169c0.674377,-0.491241 3.228027,4.242035 -0.021118,6.723236l0,0.91391c0,0 0.066895,-0.005066 0.449524,0.034912c0.33728,0.035065 0.632446,0.842194 0.632446,0.842194l-0.02124,1.648895c-0.080811,0.719147 -0.790161,1.473816 -0.790161,1.473816l0.835876,0l0,4.290344l1.082031,0l0,0.793976l-0.987122,0.794098l0,1.686737c1.148499,0 3.027893,4.614471 3.027893,4.614471l0,5.458496l0.828979,0l0,1.786102l-1.46814,0l0,10.12204l1.116943,0l0,-2.728699l1.433167,-2.23288l0,5.58905l1.520874,0l0,1.403259l-1.394714,1.754333l0,17.823792l1.261169,0l0,2.456024l-0.653259,0l0,4.069794l1.194214,0l0,-2.31601l0.561951,0l0,2.561768l0.474304,0l0,4.736542l0.569031,0.063171c0.934326,0.585419 0.853577,1.856781 0.853577,2.253601c-0.200317,1.517914 -1.644104,1.284393 -1.644104,1.284393l0,1.389099l0.808105,0l0,2.237213c18.634399,10.24234 24.848145,41.717926 26.088318,58.031342l0.762024,0l0,3.525818l1.72821,1.553162l0,1.098267l-0.611206,0.94873l-0.509216,0l-0.126587,0.731873l0.656982,0l0,0.967407l1.55957,0l0,2.977051l-1.513794,1.81134l0,15.997925l3.965576,0l3.695251,1.722778l2.507935,2.455688l0,1.410706l-0.569031,0.235046l0,5.507263l2.072449,1.23053l0,2.138428l-1.577209,2.455383l0,7.087708l0,35.049805l0.586609,0l0,5.020386l-1.306641,0l0,17.718933l1.981201,0l0,2.313538l-0.720337,0l0,2.739746l-0.990417,0l0,1.099243l8.971313,0l0,-2.039795l8.064758,0l0,2.039795l17.875854,0l0,-1.777405l6.923218,0l0,1.985107l18.581909,0l0,-1.935852l7.056763,0l0,1.832092l16.372131,0l0,-1.755554l8.886963,0l0,1.629639l35.544006,0l0,-10.133667l-1.043213,-1.22522l-0.049072,-6.546082l1.071289,-0.738159l0,-2.515686l-1.046631,0l0,-8.438599l3.161133,0l0,-3.324951l1.556152,0.038391l-0.976563,-2.0401l-0.502075,-0.945862l-0.067017,-2.089294l1.127686,0.044006l0,-2.663574l0.498901,0l0,-22.640869l-0.853638,-0.770996l-1.278687,-0.962708l0,-3.226685l2.132324,0l0,-4.916443l0.618164,0l0,-3.439758l1.022095,0l0.530273,0l0,-4.271484l-0.639282,0l0,-1.465332l0.639282,0l0,-1.832153l1.008301,0l0,1.782776l0.56897,0l0,1.514709l-0.56897,0l0,2.461182l0.804443,0l0.941162,-2.357056l0,-7.426636l-0.705933,0l0,-2.428101l1.074951,0l0,-2.49115l0.807739,0l0,-1.726624l-0.772705,0l0,-1.883362l0.705933,0l0,-1.779053l0.537598,0l-0.116089,-0.673706l0.685181,0l-0.059814,-3.211426l0.997559,-2.108093l0,-4.103821l1.819336,-4.603638l0.369141,0c0,0 0.168579,-2.51123 0.976196,-2.720764c0,-0.10437 0.059937,-1.837708 0.059937,-1.837708c-0.713013,-0.147522 -1.036133,-2.160461 -0.038574,-2.82666c0.006836,0.003296 -0.031738,-1.697021 -0.02478,-1.701294c-1.155396,-0.562683 -1.162598,-3.530151 0.421509,-3.612915c1.587769,0.087585 1.580811,3.054443 0.425049,3.617188c0.00708,0.004822 -0.031494,1.704712 -0.024536,1.701355c0.997681,0.666077 0.674316,2.679016 -0.038452,2.827148c0,0 0.05957,1.732788 0.05957,1.83783c0.807861,0.208862 0.976563,2.720337 0.976563,2.720337l0.368896,0l1.819458,4.603943l0,4.103333l0.997437,2.109009l-0.06311,3.211243l0.688354,0l-0.115845,0.673462l0.537476,0l0,1.778564l0.706055,0l0,1.883301l-0.772827,0l0,1.726746l0.807983,0l0,2.492249l1.074707,0l0,2.428162l-0.705933,0l0,7.426575l0.941284,2.351563l0.804321,0l0,-2.455444l-0.56897,0l0,-1.520447l0.56897,0l0,-1.777344l1.008179,0l0,1.832153l0.639404,0l0,1.465637l-0.639404,0l0,4.265747l0.530396,0l1.022339,0l0,3.439758l0.618042,0l0,4.922058l2.131958,0l0,3.221069l-1.278198,0.968201l-0.85376,0.770935l0,22.635437l0.498901,0l0,2.669067l1.127563,-0.043884l-0.066772,2.089111l-0.502319,0.94043l-0.976563,2.0401l1.55603,-0.038391l0,3.330627l3.161499,0l0,8.438232l-1.046875,0l0,2.515808l1.071167,0.73822l-0.04895,6.546387l-1.043213,1.219421l0,8.175903l4.278442,0l0,-1.892212c0,0 -0.772949,-1.044556 -0.706055,-1.832275c0,0.207947 0.017334,-3.215637 0.017334,-3.215637c0,0 0.168945,-1.071655 0.537598,-1.361633c-0.049194,-0.076599 0,-7.038574 0,-7.038574l0.488403,-0.732422c0,0 -0.253052,-1.427368 0.57605,-1.482361c-0.045776,0 0.87439,-0.043518 0.582764,1.70105c0,-0.027405 0.839722,0.749268 0.839722,0.749268l0,1.886597l-0.351318,0l0,0.809326l0.56897,0l-0.017456,6.464233l-0.537476,0l0,5.933594l0,10.215942l1.046997,1.03894l0,5.512573l-0.523804,0l0,3.21582l-0.56897,0l0,30.335693l1.664917,0l0,4.992798l1.11377,0l0,3.369019l-0.544556,0l0,1.514771l-1.665161,0l0,4.960327l0.643066,0l0,3.549133l-0.618164,0l0,3.106384l-0.569092,0l0,38.845093l1.092163,0l0,1.591309l0.59375,0l0,0.9245l0.548096,0l0,13.207153l-382.147156,0.049255l-0.003662,0z" stroke-width="0.015306" stroke-miterlimit="4" stroke="#000000" fill-rule="evenodd" fill="#000000" id="path3293"/>
  </g>
  <g display="inline" id="layer7">
   <g id="g12775">
    <path d="m308.173309,479.643402l1.166534,0.076294l1.018829,-16.396454l0.474976,-5.934875l-0.668579,-0.140289l-0.062225,-1.253784l0.836731,-0.082153l0.659485,-11.907715l0.30661,-6.537506l0.269684,6.687561l0.689301,11.76062l0.670746,0.070679l0.069214,1.353882l-0.684692,-0.148193l1.915649,34.174072l0.13147,236.854858l0,0l-25.362854,-0.006348l0,-236.865112l1.950226,-34.766785l-0.606262,0.162201l0.048401,-1.159058l0.613251,-0.142639l0.606201,-9.297974l0.378082,-7.799011l0.216644,7.853119l0.583435,8.834412l0.608612,0.125519l-0.025452,0.941559l-0.504791,0.152496l0.608521,7.053619l1.876617,16.299835l1.164001,-0.025452l5.322968,-54.852386l5.728668,54.915619l0,-0.00061z" stroke-width="1px" stroke="#000000" fill-rule="evenodd" fill="#000000" id="path2236"/>
    <path d="m465.055634,479.365753l1.611267,0l1.021301,-16.548431l0.474823,-5.934662l-0.668488,-0.140198l-0.062164,-1.253845l0.83667,-0.082916l0.659454,-11.907196l0.306641,-6.537201l0.269623,6.687561l0.689362,11.76004l0.668488,0.070923l0.071472,1.354065l-0.68689,-0.148163l1.915649,34.174042l0.133606,236.860382l0,0l-25.362823,-0.013489l0,-236.863495l1.950256,-34.766937l-0.606262,0.162415l0.048401,-1.159363l0.610931,-0.143402l0.608521,-9.297729l0.378082,-7.798187l0.216705,7.853088l0.580902,8.834473l0.611053,0.124664l-0.025421,0.942383l-0.507141,0.151947l0.608551,7.054108l1.606903,17.034454l1.495911,0.025116l5.263214,-55.637421l5.281403,55.142975l0,0z" stroke-width="1px" stroke="#000000" fill-rule="evenodd" fill="#000000" id="path7339"/>
    <path d="m446.97287,530.114502l-60.159027,0.046753l0,-3.34314c0,0 0.366669,-6.733643 -1.085754,-6.380615c0.05304,-0.052856 -1.311859,-0.60675 -1.189575,5.51947l-2.923187,-0.100037l-0.034607,-5.21875c0,0 1.994141,-6.788513 -0.682312,-9.220947c-1.360107,1.591187 -1.350952,5.35022 -0.562378,8.713806c0.373444,1.594971 0.143005,4.097473 0.143005,5.825928l-2.976257,0.053467c0,0 0.094574,-5.479126 -0.735443,-5.472412c0,0 -1.834961,-1.348022 -1.415375,7.874573l-60.698425,0l0,25.987183l135.290802,0l0,-24.358704l-2.971466,0.073425l0,0z" stroke-width="1px" stroke="#000000" fill-rule="evenodd" fill="#000000" id="path7342"/>
    <g display="inline" id="g13443">
     <path d="m291.568237,556.161438c-38.689606,111.843201 -58.051926,163.65686 -107.551224,168.108154c0,0 -38.758926,6.420227 -60.493187,-41.395935c0,0.286987 0,0.286987 0,0.286987" stroke-width="3.3" stroke-miterlimit="4" stroke="#000000" fill="none" id="path8345"/>
     <path d="m290.971252,550.322144c0,0 -55.122025,148.220947 -107.115585,165.285217c0,0 -27.050339,6.633484 -61.074165,-42.81781" stroke-width="3.3" stroke-miterlimit="4" stroke="#000000" fill="none" id="path8336"/>
     <path d="m276.761322,585.245361l-4.128845,25.12616" stroke-width="1px" stroke="#000000" fill="none" id="path11254"/>
     <path d="m270.53241,596.997498l8.400574,-1.621826" stroke-width="1px" stroke="#000000" fill="none" id="path11256"/>
     <path d="m271.652771,597.804871l-3.082092,21.889587l0,0l0.281128,-0.607361" stroke-width="1px" stroke="#000000" fill="none" id="path11258"/>
     <path d="m255.935364,630.739075l8.681763,-1.821899" stroke-width="1px" stroke="#000000" fill="none" id="path11262"/>
     <path d="m254.151077,633.675659l-8.052444,37.09198" stroke-width="1px" stroke="#000000" fill="none" id="path11264"/>
     <path d="m244.593216,651.814209l11.761795,1.828796" stroke-width="1px" stroke="#000000" fill="none" id="path11266"/>
     <path d="m243.053253,653.03595l-7.840256,38.299438" stroke-width="1px" stroke="#000000" fill="none" id="path11268"/>
     <path d="m234.443024,666.209351l10.290848,11.345276" stroke-width="1px" stroke="#000000" fill="none" id="path11270"/>
     <path d="m232.621887,669.853088l-8.19072,35.063416" stroke-width="1px" stroke="#000000" fill="none" id="path11272"/>
     <path d="m223.870926,681.205322l10.431503,13.37384" stroke-width="1px" stroke="#000000" fill="none" id="path11274"/>
     <path d="m222.89122,683.434021l-8.960693,30.598389" stroke-width="1px" stroke="#000000" fill="none" id="path11276"/>
     <path d="m213.580139,694.378662l9.382538,11.952393" stroke-width="1px" stroke="#000000" fill="none" id="path11278"/>
     <path d="m210.359634,698.429626l-6.929749,22.089722" stroke-width="1px" stroke="#000000" fill="none" id="path11280"/>
     <path d="m202.659912,705.116638l8.05011,10.337463" stroke-width="1px" stroke="#000000" fill="none" id="path11282"/>
     <path d="m199.718399,708.360107c-0.278931,0 -6.43869,14.595215 -6.43869,14.595215" stroke-width="1px" stroke="#000000" fill="none" id="path11284"/>
     <path d="m192.857819,711.803711l6.86058,9.529541" stroke-width="1px" stroke="#000000" fill="none" id="path11286"/>
     <path d="m190.829178,714.439758l-5.041656,10.537476" stroke-width="1px" stroke="#000000" fill="none" id="path11288"/>
     <path d="m185.08667,716.468506l7.1418,8.715576" stroke-width="2" stroke-miterlimit="4" stroke="#000000" fill="none" id="path11290"/>
     <path d="m276.097382,599.733643l0,142.268127" stroke-width="2" stroke-miterlimit="4" stroke="#000000" fill="none" id="path12267"/>
     <path d="m265.596832,608.649658l0,134.166016" stroke-width="2" stroke-miterlimit="4" stroke="#000000" fill="none" id="path12269"/>
     <path d="m255.096176,627.702759l0,114.906372" stroke-width="2" stroke-miterlimit="4" stroke="#000000" fill="none" id="path12271"/>
     <path d="m244.314285,648.777954l0,93.223816" stroke-width="2" stroke-miterlimit="4" stroke="#000000" fill="none" id="path12273"/>
     <path d="m233.391861,666.209351l0,75.792419" stroke-width="2" stroke-miterlimit="4" stroke="#000000" fill="none" id="path12275"/>
     <path d="m223.310806,679.176208l0,62.418274l0.272018,-0.447144l0.009232,0.046814" stroke-width="2" stroke-miterlimit="4" stroke="#000000" fill="none" id="path12277"/>
     <path d="m212.66951,692.149841l0,49.851929" stroke-width="2" stroke-miterlimit="4" stroke="#000000" fill="none" id="path12279"/>
     <path d="m202.450211,702.687378l0,40.128296" stroke-width="2" stroke-miterlimit="4" stroke="#000000" fill="none" id="path12281"/>
     <path d="m191.808884,711.196289l0,32.019897" stroke-width="2" stroke-miterlimit="4" stroke="#000000" fill="none" id="path12283"/>
     <path d="m266.191528,609.356873l7.805847,-1.41449" stroke-width="1px" stroke="#000000" fill="none" id="path12376"/>
     <path d="m263.215424,615.036316l-6.440948,33.841675" stroke-width="1px" stroke="#000000" fill="none" id="path12378"/>
     <path d="m171.575378,741.441101l0,-27.762329" stroke-width="2" stroke-miterlimit="4" stroke="#000000" fill="none" id="path7591"/>
     <path d="m160.445419,741.441101l0,-31.819763" stroke-width="2" stroke-miterlimit="4" stroke="#000000" fill="none" id="path7593"/>
     <path d="m149.944839,740.833496l0,-38.306396" stroke-width="2" stroke-miterlimit="4" stroke="#000000" fill="none" id="path7595"/>
     <path d="m139.372742,739.819397l0,-46.408264l0.281158,0" stroke-width="2" stroke-miterlimit="4" stroke="#000000" fill="none" id="path7597"/>
     <path d="m129.15097,738.604736l0,-57.352844" stroke-width="2" stroke-miterlimit="4" stroke="#000000" fill="none" id="path7599"/>
     <path d="m171.925705,721.987488l8.262238,-5.472534" stroke-width="1px" stroke="#000000" fill="none" id="path8572"/>
     <path d="m171.997192,713.271912l8.820099,11.144836" stroke-width="1px" stroke="#000000" fill="none" id="path8574"/>
     <path d="m160.864975,719.551819l11.480316,-4.458069" stroke-width="1px" stroke="#000000" fill="none" id="path8576"/>
     <path d="m161.005508,709.421021l10.781967,15.40271l0,-0.200256l0,0" stroke-width="1px" stroke="#000000" fill="none" id="path8578"/>
     <path d="m150.083191,715.09375l10.080978,-4.865173" stroke-width="1px" stroke="#000000" fill="none" id="path8580"/>
     <path d="m150.223633,702.934387l9.66153,18.238953" stroke-width="1px" stroke="#000000" fill="none" id="path8582"/>
     <path d="m139.582474,707.999451l10.22171,-5.672485" stroke-width="1px" stroke="#000000" fill="none" id="path8584"/>
     <path d="m139.6539,693.003845l10.081085,22.296997l0,0" stroke-width="1px" stroke="#000000" fill="none" id="path8586"/>
     <path d="m129.291656,695.639893l9.802124,-2.435669" stroke-width="1px" stroke="#000000" fill="none" id="path8588"/>
     <path d="m129.572876,681.0448l9.38028,25.540283" stroke-width="1px" stroke="#000000" fill="none" id="path8590"/>
    </g>
    <g display="inline" id="g12056">
     <g display="inline" id="g11860">
      <path d="m469.686859,556.829224c38.692139,111.842712 58.052032,163.656799 107.55368,168.108154c0,0 38.756531,6.413086 60.493103,-41.396423" stroke-width="3.3" stroke-miterlimit="4" stroke="#000000" fill="none" id="path11862"/>
      <path d="m470.286224,550.989929c0,0 55.119598,148.220459 107.115692,165.284973c0,0 27.050171,6.633545 61.074158,-42.81781" stroke-width="3.3" stroke-miterlimit="4" stroke="#000000" fill="none" id="path11864"/>
      <path d="m484.493835,585.90625l4.131104,25.132568" stroke-width="1px" stroke="#000000" fill="none" id="path11866"/>
      <path d="m490.725067,597.664795l-8.400574,-1.621582" stroke-width="1px" stroke="#000000" fill="none" id="path11868"/>
      <path d="m489.604553,598.472168l3.079926,21.889648l0,0l-0.27887,-0.607422" stroke-width="1px" stroke="#000000" fill="none" id="path11870"/>
      <path d="m505.322266,631.406616l-8.681885,-1.821716" stroke-width="1px" stroke="#000000" fill="none" id="path11872"/>
      <path d="m507.106415,634.343201l8.05014,37.091736" stroke-width="1px" stroke="#000000" fill="none" id="path11874"/>
      <path d="m516.662048,652.48175l-11.761688,1.828918" stroke-width="1px" stroke="#000000" fill="none" id="path11876"/>
      <path d="m518.201721,653.703186l7.840393,38.299744" stroke-width="1px" stroke="#000000" fill="none" id="path11878"/>
      <path d="m526.814392,666.870239l-10.29303,11.351746" stroke-width="1px" stroke="#000000" fill="none" id="path11880"/>
      <path d="m528.63324,670.52063l8.190735,35.063171" stroke-width="1px" stroke="#000000" fill="none" id="path11882"/>
      <path d="m537.384155,681.872681l-10.431335,13.373474" stroke-width="1px" stroke="#000000" fill="none" id="path11884"/>
      <path d="m538.364014,684.10144l8.960754,30.598389" stroke-width="1px" stroke="#000000" fill="none" id="path11886"/>
      <path d="m547.67511,695.046265l-9.380371,11.952332" stroke-width="1px" stroke="#000000" fill="none" id="path11888"/>
      <path d="m550.895447,699.096924l6.932068,22.089722" stroke-width="1px" stroke="#000000" fill="none" id="path11890"/>
      <path d="m558.597412,705.783997l-8.052185,10.337402" stroke-width="1px" stroke="#000000" fill="none" id="path11892"/>
      <path d="m561.536743,709.027466c0.28125,0 6.44104,14.595215 6.44104,14.595215" stroke-width="1px" stroke="#000000" fill="none" id="path11894"/>
      <path d="m568.397278,712.471008l-6.860535,9.530212" stroke-width="1px" stroke="#000000" fill="none" id="path11896"/>
      <path d="m570.428345,715.107056l5.039185,10.537781" stroke-width="1px" stroke="#000000" fill="none" id="path11898"/>
      <path d="m576.168396,717.13562l-7.141663,8.715759" stroke-width="2" stroke-miterlimit="4" stroke="#000000" fill="none" id="path11900"/>
      <path d="m485.160156,600.401184l0,142.267883" stroke-width="2" stroke-miterlimit="4" stroke="#000000" fill="none" id="path11902"/>
      <path d="m495.660736,609.3172l0,134.165771" stroke-width="2" stroke-miterlimit="4" stroke="#000000" fill="none" id="path11904"/>
      <path d="m506.161377,628.370056l0,114.906311" stroke-width="2" stroke-miterlimit="4" stroke="#000000" fill="none" id="path11906"/>
      <path d="m516.943115,649.445496l0,93.223572" stroke-width="2" stroke-miterlimit="4" stroke="#000000" fill="none" id="path11908"/>
      <path d="m527.863342,666.870239l0,75.798828" stroke-width="2" stroke-miterlimit="4" stroke="#000000" fill="none" id="path11910"/>
      <path d="m537.944397,679.84375l0,62.41803l-0.269714,-0.447144l-0.009216,0.046875" stroke-width="2" stroke-miterlimit="4" stroke="#000000" fill="none" id="path11912"/>
      <path d="m548.585571,692.817139l0,49.851929" stroke-width="2" stroke-miterlimit="4" stroke="#000000" fill="none" id="path11914"/>
      <path d="m558.807251,703.35498l0,40.127991" stroke-width="2" stroke-miterlimit="4" stroke="#000000" fill="none" id="path11916"/>
      <path d="m569.448669,711.863586l0,32.020142" stroke-width="2" stroke-miterlimit="4" stroke="#000000" fill="none" id="path11918"/>
      <path d="m495.065948,610.024414l-7.805847,-1.414856" stroke-width="1px" stroke="#000000" fill="none" id="path11920"/>
      <path d="m498.039673,615.703491l6.44101,33.841797" stroke-width="1px" stroke="#000000" fill="none" id="path11922"/>
      <path d="m589.679871,742.108459l0,-27.76239" stroke-width="2" stroke-miterlimit="4" stroke="#000000" fill="none" id="path11924"/>
      <path d="m600.812134,742.108459l0,-31.819824" stroke-width="2" stroke-miterlimit="4" stroke="#000000" fill="none" id="path11926"/>
      <path d="m611.312683,741.500793l0,-38.306396" stroke-width="2" stroke-miterlimit="4" stroke="#000000" fill="none" id="path11928"/>
      <path d="m621.882568,740.486694l0,-46.408264l-0.279053,0" stroke-width="2" stroke-miterlimit="4" stroke="#000000" fill="none" id="path11930"/>
      <path d="m632.104187,739.272095l0,-57.352905" stroke-width="2" stroke-miterlimit="4" stroke="#000000" fill="none" id="path11932"/>
      <path d="m589.329407,722.654541l-8.259766,-5.471985" stroke-width="1px" stroke="#000000" fill="none" id="path11934"/>
      <path d="m589.260376,713.939331l-8.822632,11.144836" stroke-width="1px" stroke="#000000" fill="none" id="path11936"/>
      <path d="m600.390198,720.218933l-11.480164,-4.458008" stroke-width="1px" stroke="#000000" fill="none" id="path11938"/>
      <path d="m600.251953,710.088318l-10.781921,15.402954l0,-0.206787l0,0" stroke-width="1px" stroke="#000000" fill="none" id="path11940"/>
      <path d="m611.172058,715.760925l-10.080933,-4.864807" stroke-width="1px" stroke="#000000" fill="none" id="path11942"/>
      <path d="m611.031372,703.601685l-9.661499,18.238953" stroke-width="1px" stroke="#000000" fill="none" id="path11944"/>
      <path d="m621.672668,708.666992l-10.22168,-5.672729" stroke-width="1px" stroke="#000000" fill="none" id="path11946"/>
      <path d="m621.603516,693.671204l-10.081177,22.290161l0,0" stroke-width="1px" stroke="#000000" fill="none" id="path11948"/>
      <path d="m631.963684,696.307312l-9.799927,-2.435974" stroke-width="1px" stroke="#000000" fill="none" id="path11950"/>
      <path d="m631.684631,681.712097l-9.380249,25.540039" stroke-width="1px" stroke="#000000" fill="none" id="path11952"/>
     </g>
     <path d="m653.116882,673.62384l35.351807,61.717285" stroke-width="2.13779" stroke-miterlimit="4" stroke="#000000" fill="none" id="path11954"/>
     <path d="m651.680664,677.060669l33.498291,59.895569" stroke-width="2.13779" stroke-miterlimit="4" stroke="#000000" fill="none" id="path11956"/>
    </g>
    <path d="m185.100555,744.684387l-0.025375,-19.346741c0,0 -1.311737,-0.647522 -1.237946,-2.075806c0.073746,-1.434631 0.818359,-0.393555 1.039703,-2.148438c0.710022,-5.632813 -0.345795,-9.750183 -2.240723,-9.837158c-2.093277,0.020203 -3.024597,4.244446 -2.31459,9.8703c0.221313,1.755249 0.965927,0.720764 1.039749,2.155518c0.073715,1.428284 -1.237991,2.075867 -1.237991,2.075867l-0.062225,18.305237l0,1.074402l5.039398,-0.073181l0,0z" stroke-width="1px" stroke="#000000" fill-rule="evenodd" fill="#000000" id="path2241"/>
    <path d="m581.000488,744.604614l-0.025513,-19.347107c0,0 -1.311707,-0.647095 -1.237854,-2.082336c0.075928,-1.427979 0.818359,-0.39325 1.039673,-2.148438c0.710022,-5.625916 -0.345886,-9.743774 -2.238525,-9.830444c-2.093201,0.019775 -3.026855,4.23761 -2.316772,9.870361c0.221436,1.755127 0.965942,0.713989 1.039673,2.148743c0.076111,1.434631 -1.237854,2.082092 -1.237854,2.082092l-0.059875,18.305908l0,1.074524l5.037048,-0.073303l0,0z" stroke-width="1px" stroke="#000000" fill-rule="evenodd" fill="#000000" id="path2249"/>
    <path d="m106.84037,744.831238l175.582817,0.073242l0,-2.882751l0,0c-0.016266,0 -156.192986,-0.954407 -175.594307,-0.994385l0.01149,3.803894l0,0z" stroke-width="0.904122" stroke-miterlimit="4" stroke="#000000" fill-rule="evenodd" fill="#000000" id="path10593"/>
    <path d="m106.856476,727.333252l175.884827,0l0,9.6698l-175.884827,0l0,-9.6698l0,0z" stroke-width="0.904122" stroke-miterlimit="4" stroke="#000000" fill-rule="evenodd" fill="#000000" id="path2253"/>
    <g display="inline" id="g2268">
     <path d="m479.134003,727.940308l313.75296,0l0,10.030273l-314.071136,0l0.318176,-10.030273z" stroke-width="1px" stroke="#000000" fill-rule="evenodd" fill="#000000" id="path2264"/>
     <path d="m792.423584,742.168335c-0.027649,0 -314.485901,-0.360352 -314.485901,-0.360352l0.025299,3.356873l314.458405,0l0.002197,-2.996521l0,0z" stroke-width="1px" stroke="#000000" fill-rule="evenodd" fill="#000000" id="path2266"/>
    </g>
    <path d="m439.284576,727.459839l41.094269,0l0,67.283142l-41.303925,0l0.209656,-67.283142z" stroke-width="1px" stroke="#000000" fill-rule="evenodd" fill="#000000" id="path2276"/>
    <path d="m281.837646,727.459839l41.094177,0l0,67.283142l-41.303925,0l0.209747,-67.283142z" stroke-width="1px" stroke="#000000" fill-rule="evenodd" fill="#000000" id="path2280"/>
    <g display="inline" id="g4241">
     <path d="m319.372406,733.005554l52.874207,-76.285706l1.570038,9.029297l-52.904358,76.265686l-1.539886,-9.009277z" stroke-width="1px" stroke="#000000" fill-rule="evenodd" fill="#000000" id="path2291"/>
     <path d="m319.683685,778.713135c0.039124,0.020081 32.133453,-76.906555 53.385956,-108.352539l1.484772,-2.195923" stroke-width="3" stroke-miterlimit="4" stroke="#000000" fill="none" id="path2296"/>
     <path d="m325.304047,764.671814l-5.131714,-25.746582l9.636169,10.877869l-3.123596,-18.61261l9.128967,6.29303l-3.056946,-17.925232l8.476532,6.186401l-2.515076,-15.262512l7.97641,4.424683l-2.127777,-12.373047l6.61853,2.622986l-1.899567,-9.42981l6.042145,1.694885l-1.567596,-8.148376l5.246948,0.921021l-1.235809,-6.860413l4.781342,0.46698l-1.766113,-9.937012l0,0" stroke-width="2.9" stroke-miterlimit="4" stroke="#000000" fill="none" id="path3270"/>
    </g>
    <g display="inline" id="g4247">
     <path d="m442.030243,731.604065l-52.874176,-76.285767l-1.570068,9.029297l52.904419,76.26593l1.539825,-9.00946z" stroke-width="1px" stroke="#000000" fill-rule="evenodd" fill="#000000" id="path4249"/>
     <path d="m441.719177,777.31189c-0.039246,0.019836 -32.133636,-76.900085 -53.386108,-108.353088l-1.484619,-2.195435" stroke-width="3" stroke-miterlimit="4" stroke="#000000" fill="none" id="path4251"/>
     <path d="m436.098663,763.270569l5.131714,-25.746765l-9.63623,10.87793l3.123627,-18.612793l-9.128845,6.293152l3.056946,-17.925354l-8.476746,6.186707l2.517395,-15.262817l-7.978638,4.431091l2.127899,-12.379211l-6.616211,2.622742l1.897308,-9.430054l-6.042328,1.695251l1.567566,-8.148438l-5.246796,0.920959l1.235657,-6.860413l-4.781189,0.473572l1.765839,-9.943604l0,0" stroke-width="2.9" stroke-miterlimit="4" stroke="#000000" fill="none" id="path4253"/>
    </g>
    <path d="m115.001122,593.747437c0.191338,-0.240173 0.343483,-0.894043 0.343483,-1.568359l0,0c0,-0.900574 -0.237419,-1.628418 -0.530228,-1.628418c-0.295067,0 -0.532494,0.727844 -0.532494,1.628418c0,0.700745 0.145241,1.301453 0.371109,1.568359l-0.052925,9.11615l-0.889923,0.033386l0,1.748657l0.331993,0c0,0 0.073715,2.656006 -0.101479,4.611145c-2.309906,17.431702 -4.442253,19.546997 -4.442253,19.546997l-2.602676,-0.073181l-1.256454,6.967102l-0.02533,23.878418l-1.339325,0.039856l-0.018463,5.365845l1.383118,0l0,55.924744l-1.535271,11.498596l0.050705,57.512878l0,0l21.095757,0l-0.050705,-58.26709l-1.583755,-11.498596l0,-55.177612l1.383156,0l-0.018394,-5.358765l-1.339432,-0.039856l-0.02533,-23.884766l-1.106522,-6.653992l-2.298416,-0.233582c0,0 -1.853493,-3.289734 -4.472206,-19.793701c-0.066879,-3.016602 0.006805,-4.37793 -0.004684,-4.404724l0,0l0.331963,0.013489l-0.006874,-1.795105l-0.901413,0l-0.156731,-9.069519l0,-0.006775z" stroke-width="0.205521" stroke-miterlimit="4" stroke="#000000" fill-rule="evenodd" fill="#000000" id="path12772"/>
    <path d="m645.936035,593.747437c0.193604,-0.240173 0.345642,-0.894043 0.345642,-1.568359l0,0c0,-0.900574 -0.239746,-1.628418 -0.532532,-1.628418c-0.294983,0 -0.53241,0.727844 -0.53241,1.628418c0,0.700745 0.147461,1.301453 0.373413,1.568359l-0.053101,9.11615l-0.89209,0.033386l0,1.748657l0.33429,0c0,0 0.073669,2.656006 -0.101379,4.611145c-2.309937,17.431702 -4.444641,19.546997 -4.444641,19.546997l-2.602661,-0.073181l-1.25647,6.967102l-0.02533,23.878418l-1.339417,0.039856l-0.018494,5.365845l1.38324,0l0,55.924744l-1.535217,11.498596l0.050598,57.512878l0,0l21.095764,0l-0.05072,-58.26709l-1.583679,-11.498596l0,-55.177612l1.383118,0l-0.018372,-5.358765l-1.337097,-0.039856l-0.027649,-23.884766l-1.106689,-6.653992l-2.295898,-0.233582c0,0 -1.855713,-3.289734 -4.47467,-19.793701c-0.066833,-3.016602 0.009338,-4.37793 -0.004456,-4.404724l0,0l0.331787,0.013489l-0.006775,-1.795105l-0.901428,0l-0.156677,-9.069519l0,-0.006775z" stroke-width="0.205521" stroke-miterlimit="4" stroke="#000000" fill-rule="evenodd" fill="#000000" id="path12108"/>
   </g>
  </g>
  <g display="inline" id="layer3">
   <g display="inline" id="g3766">
    <path d="m-4.186627,198.981628c0,8.732819 -6.281623,15.812195 -14.032287,15.812195c-7.744909,0 -14.026222,-7.079376 -14.026222,-15.812195c0,-8.732574 6.281313,-15.811325 14.026222,-15.811325c7.750664,0 14.032287,7.078751 14.032287,15.811325z" fill-rule="nonzero" fill="#000000" id="path2836"/>
    <path d="m-58.062801,210.770355c0,8.732742 -6.275539,15.812225 -14.026371,15.812225c-7.750824,0 -14.03228,-7.079483 -14.03228,-15.812225c0,-8.732605 6.281456,-15.812134 14.03228,-15.812134c7.750832,0 14.026371,7.079529 14.026371,15.812134z" fill-rule="nonzero" fill="#000000" id="path2838"/>
    <path d="m-101.32312,229.753891c0,8.732773 -6.281609,15.812393 -14.03244,15.812393c-7.745064,0 -14.026367,-7.07962 -14.026367,-15.812393c0,-8.732834 6.281303,-15.812134 14.026367,-15.812134c7.750832,0 14.03244,7.0793 14.03244,15.812134z" fill-rule="nonzero" fill="#000000" id="path2840"/>
    <path d="m-141.6203,258.787109c0,8.732971 -6.281464,15.812561 -14.026215,15.812561c-7.750687,0 -14.032425,-7.07959 -14.032425,-15.812561c0,-8.732803 6.281738,-15.812027 14.032425,-15.812027c7.744751,0 14.026215,7.079224 14.026215,15.812027z" fill-rule="nonzero" fill="#000000" id="path2842"/>
    <path d="m-174.644028,294.893219c0,8.732788 -6.281387,15.81192 -14.032379,15.81192c-7.744598,0 -14.02597,-7.079132 -14.02597,-15.81192c0,-8.733002 6.281372,-15.812317 14.02597,-15.812317c7.750992,0 14.032379,7.079315 14.032379,15.812317z" fill-rule="nonzero" fill="#000000" id="path2844"/>
    <path d="m-201.398483,337.698547c0,8.732422 -6.281372,15.81189 -14.026199,15.81189c-7.750931,0 -14.032532,-7.079468 -14.032532,-15.81189c0,-8.73288 6.281601,-15.812561 14.032532,-15.812561c7.744827,0 14.026199,7.079681 14.026199,15.812561z" fill-rule="nonzero" fill="#000000" id="path2846"/>
    <path d="m-221.210403,386.832306c0,8.732788 -6.281326,15.811859 -14.032272,15.811859c-7.744568,0 -14.026199,-7.079071 -14.026199,-15.811859c0,-8.732819 6.281631,-15.812378 14.026199,-15.812378c7.750946,0 14.032272,7.079559 14.032272,15.812378z" fill-rule="nonzero" fill="#000000" id="path2848"/>
    <path d="m-231.783417,438.943604c0,8.732635 -6.281616,15.81189 -14.026459,15.81189c-7.750717,0 -14.032135,-7.079254 -14.032135,-15.81189c0,-8.732819 6.281418,-15.812469 14.032135,-15.812469c7.744843,0 14.026459,7.079651 14.026459,15.812469z" fill-rule="nonzero" fill="#000000" id="path2850"/>
    <path d="m-235.083344,491.799194c0,8.732971 -6.281387,15.810181 -14.032394,15.810181c-7.744797,0 -14.026199,-7.077209 -14.026199,-15.810181c0,-8.733337 6.281403,-15.811859 14.026199,-15.811859c7.751007,0 14.032394,7.078522 14.032394,15.811859z" fill-rule="nonzero" fill="#000000" id="path2852"/>
    <path d="m-227.155075,546.145996c0,8.728699 -6.281616,15.808472 -14.032333,15.808472c-7.750916,0 -14.032303,-7.079773 -14.032303,-15.808472c0,-8.735168 6.281387,-15.81488 14.032303,-15.81488c7.750717,0 14.032333,7.079712 14.032333,15.81488z" fill-rule="nonzero" fill="#000000" id="path2854"/>
    <path d="m-211.965683,596.764893c0,8.735657 -6.281357,15.815063 -14.026169,15.815063c-7.750656,0 -14.032303,-7.079407 -14.032303,-15.815063c0,-8.72821 6.281647,-15.807922 14.032303,-15.807922c7.744812,0 14.026169,7.079712 14.026169,15.807922z" fill-rule="nonzero" fill="#000000" id="path2856"/>
    <path d="m-186.533447,646.645325c0,8.728821 -6.281631,15.808411 -14.032394,15.808411c-7.744598,0 -14.026428,-7.07959 -14.026428,-15.808411c0,-8.735352 6.28183,-15.814697 14.026428,-15.814697c7.750763,0 14.032394,7.079346 14.032394,15.814697z" fill-rule="nonzero" fill="#000000" id="path2858"/>
    <path d="m-148.550537,691.309753c0,8.735229 -6.281601,15.814636 -14.032578,15.814636c-7.750702,0 -14.031967,-7.079407 -14.031967,-15.814636c0,-8.729004 6.281265,-15.808472 14.031967,-15.808472c7.750977,0 14.032578,7.079468 14.032578,15.808472z" fill-rule="nonzero" fill="#000000" id="path2860"/>
    <path d="m-105.951775,725.181885c0,8.735474 -6.275238,15.815063 -14.026199,15.815063c-7.750702,0 -14.03231,-7.07959 -14.03231,-15.815063c0,-8.72876 6.281609,-15.808228 14.03231,-15.808228c7.750961,0 14.026199,7.079468 14.026199,15.808228z" fill-rule="nonzero" fill="#000000" id="path2862"/>
    <path d="m-50.311977,749.380432c0,8.728516 -6.281624,15.808044 -14.032627,15.808044c-7.744568,0 -14.026192,-7.079529 -14.026192,-15.808044c0,-8.735779 6.281624,-15.815002 14.026192,-15.815002c7.751003,0 14.032627,7.079224 14.032627,15.815002z" fill-rule="nonzero" fill="#000000" id="path2864"/>
    <path d="m13.451878,755.307312c0,8.72876 -6.281763,15.808105 -14.032759,15.808105c-7.744266,0 -14.025893,-7.079346 -14.025893,-15.808105c0,-8.735168 6.281628,-15.814758 14.025893,-15.814758c7.750996,0 14.032759,7.07959 14.032759,15.814758z" fill-rule="nonzero" fill="#000000" id="path2866"/>
    <path d="m68.925911,751.795227c0,8.735718 -6.281296,15.815002 -14.026222,15.815002c-7.750809,0 -14.032265,-7.079285 -14.032265,-15.815002c0,-8.728271 6.281456,-15.807861 14.032265,-15.807861c7.744926,0 14.026222,7.07959 14.026222,15.807861z" fill-rule="nonzero" fill="#000000" id="path2868"/>
    <path d="m127.222534,730.018982c0,8.735168 -6.281616,15.814941 -14.032303,15.814941c-7.750969,0 -14.03231,-7.079773 -14.03231,-15.814941c0,-8.728577 6.281342,-15.808228 14.03231,-15.808228c7.750687,0 14.032303,7.079651 14.032303,15.808228z" fill-rule="nonzero" fill="#000000" id="path2870"/>
    <path d="m175.772751,693.917725c0,8.728455 -6.281799,15.8078 -14.032578,15.8078c-7.750885,0 -14.032333,-7.079346 -14.032333,-15.8078c0,-8.735413 6.281448,-15.815002 14.032333,-15.815002c7.750778,0 14.032578,7.07959 14.032578,15.815002z" fill-rule="nonzero" fill="#000000" id="path2872"/>
    <path d="m212.102173,650.364502c0,8.735291 -6.281448,15.814941 -14.03212,15.814941c-7.751297,0 -14.032623,-7.079651 -14.032623,-15.814941c0,-8.728333 6.281326,-15.808105 14.032623,-15.808105c7.750671,0 14.03212,7.079773 14.03212,15.808105z" fill-rule="nonzero" fill="#000000" id="path2874"/>
    <path d="m238.850403,602.346985c0,8.735474 -6.281281,15.814941 -14.031982,15.814941c-7.744766,0 -14.026215,-7.079468 -14.026215,-15.814941c0,-8.728271 6.281448,-15.807739 14.026215,-15.807739c7.750702,0 14.031982,7.079468 14.031982,15.807739z" fill-rule="nonzero" fill="#000000" id="path2876"/>
    <path d="m255.693085,549.492737c0,8.735535 -6.281586,15.81488 -14.026154,15.81488c-7.751038,0 -14.032333,-7.079346 -14.032333,-15.81488c0,-8.728394 6.281296,-15.808044 14.032333,-15.808044c7.744568,0 14.026154,7.079651 14.026154,15.808044z" fill-rule="nonzero" fill="#000000" id="path2878"/>
    <path d="m263.952026,496.637695c0,8.732605 -6.281433,15.81543 -14.032135,15.81543c-7.745056,0 -14.026321,-7.082825 -14.026321,-15.81543c0,-8.732849 6.281265,-15.811432 14.026321,-15.811432c7.750702,0 14.032135,7.078583 14.032135,15.811432z" fill-rule="nonzero" fill="#000000" id="path2880"/>
    <path d="m262.960358,441.920654c0,8.732758 -6.281616,15.812531 -14.032318,15.812531c-7.744873,0 -14.026215,-7.079773 -14.026215,-15.812531c0,-8.732391 6.281342,-15.811615 14.026215,-15.811615c7.750702,0 14.032318,7.079224 14.032318,15.811615z" fill-rule="nonzero" fill="#000000" id="path2882"/>
    <path d="m251.401459,386.832306c0,8.732788 -6.281342,15.811859 -14.032562,15.811859c-7.744614,0 -14.026245,-7.079071 -14.026245,-15.811859c0,-8.732819 6.281631,-15.812378 14.026245,-15.812378c7.751221,0 14.032562,7.079559 14.032562,15.812378z" fill-rule="nonzero" fill="#000000" id="path2884"/>
    <path d="m232.905945,340.676422c0,8.732574 -6.281616,15.812347 -14.032471,15.812347c-7.74472,0 -14.026169,-7.079773 -14.026169,-15.812347c0,-8.732819 6.281448,-15.812347 14.026169,-15.812347c7.750854,0 14.032471,7.079529 14.032471,15.812347z" fill-rule="nonzero" fill="#000000" id="path2886"/>
    <path d="m204.173874,295.265106c0,8.732758 -6.281799,15.812103 -14.032471,15.812103c-7.744537,0 -14.026184,-7.079346 -14.026184,-15.812103c0,-8.732819 6.281647,-15.812347 14.026184,-15.812347c7.750671,0 14.032471,7.079529 14.032471,15.812347z" fill-rule="nonzero" fill="#000000" id="path2888"/>
    <path d="m171.805298,259.531616c0,8.73291 -6.281784,15.812195 -14.026505,15.812195c-7.750687,0 -14.03215,-7.079285 -14.03215,-15.812195c0,-8.732651 6.281464,-15.812012 14.03215,-15.812012c7.74472,0 14.026505,7.079361 14.026505,15.812012z" fill-rule="nonzero" fill="#000000" id="path2890"/>
    <path d="m131.514343,230.125778c0,8.733261 -6.281479,15.812149 -14.032166,15.812149c-7.744873,0 -14.026497,-7.078888 -14.026497,-15.812149c0,-8.732819 6.281624,-15.811325 14.026497,-15.811325c7.750687,0 14.032166,7.078506 14.032166,15.811325z" fill-rule="nonzero" fill="#000000" id="path2892"/>
    <path d="m87.917343,210.025986c0,8.732635 -6.281296,15.812088 -14.02623,15.812088c-7.750793,0 -14.032585,-7.079453 -14.032585,-15.812088c0,-8.733002 6.281792,-15.812332 14.032585,-15.812332c7.744934,0 14.02623,7.07933 14.02623,15.812332z" fill-rule="nonzero" fill="#000000" id="path2894"/>
    <path d="m43.665356,199.9758c0,8.732895 -6.281456,15.812393 -14.032482,15.812393c-7.750656,0 -14.03228,-7.079498 -14.03228,-15.812393c0,-8.732544 6.281624,-15.811874 14.03228,-15.811874c7.751026,0 14.032482,7.07933 14.032482,15.811874z" fill-rule="nonzero" fill="#000000" id="path2896"/>
    <path d="m200.182083,475.433746c0,126.457855 -90.95929,228.971954 -203.162849,228.971954c-112.209473,0 -203.168694,-102.514099 -203.168694,-228.971954c0,-126.459503 90.959221,-228.974792 203.168694,-228.974792c112.20356,0 203.162849,102.515289 203.162849,228.974792z" stroke-width="0.9" stroke-miterlimit="4" stroke-dashoffset="0" stroke="#000000" fill="none" id="path2898"/>
    <path d="m233.181335,477.024139c0,145.03653 -104.324295,262.606354 -233.008867,262.606354c-128.684736,0 -233.009077,-117.569824 -233.009077,-262.606354c0,-145.034332 104.324341,-262.607086 233.009077,-262.607086c128.684572,0 233.008867,117.572754 233.008867,262.607086z" stroke-width="2.82754" stroke-miterlimit="4" stroke-dashoffset="0" stroke="#000000" fill="none" id="path2900"/>
    <path d="m-76.546295,261.713409l-21.017776,-20.266174l1.63485,30.794403l-20.319847,-18.950241l1.634377,29.478317l-18.911842,-17.897461l3.967148,29.742218l-20.313614,-13.423431l6.770981,26.31958l-25.689072,-7.632751l11.209869,23.951172l-24.054459,-5.526825l12.140594,24.477509l-26.619797,-4.211182l15.881149,23.162048l-25.223816,0l16.346573,15.791992l-24.519958,5.00061l16.811966,15.529419l-25.217896,8.685547l18.446396,16.581329l-21.482986,12.370483l19.848511,11.054718l-25.217636,15.265503l19.615891,4.21109l-20.552826,20.266388l22.885132,3.158905l-20.546112,22.109772l25.217468,1.31781l-21.715622,22.369934l25.217667,-0.524353l-19.848373,21.052185l27.789078,0.52417l-18.446411,21.583496l25.217499,-3.153381l-17.277145,28.42157l27.556564,-9.998047l-15.881134,32.63678l26.625793,-13.164978l-9.81398,38.164307l26.393051,-17.367798l-7.707596,38.426453l27.323898,-19.216492l-4.904205,37.902161l24.054398,-21.583679l-2.099869,39.744324l23.815865,-26.841125l4.43869,38.688538l21.954525,-27.372742l6.306129,38.689148l18.911823,-31.319519l9.575029,36.321777l14.247077,-34.217346l15.415648,36.321838l9.808083,-36.059448l15.642471,33.692566l8.877377,-38.164063l20.081165,31.581604l4.205795,-37.639832l22.885185,28.69043l0.93679,-38.688538l24.287292,26.316711l-1.867447,-41.055054l25.450394,23.156372l-5.369049,-37.632813l23.821777,20.527466l-6.538727,-39.744385l27.556656,15.269958l-9.808105,-38.695435l28.254745,12.633667l-14.944717,-34.741211l29.66272,10.529358l-20.08757,-34.217468l31.058609,3.160278l-22.652573,-26.848083l27.795273,-1.580322l-23.356766,-23.687744l29.424103,-8.687195l-26.387299,-20.264282l28.022125,-8.159271l-25.689362,-15.002045l25.921906,-8.159241l-28.719757,-11.317413l25.450272,-17.898041l-31.291,-2.895325l23.589218,-19.739777l-25.921799,0l25.450317,-20.003662l-32.693268,1.052765l21.01796,-25.267273l-30.360489,8.42276l20.55275,-26.057129l-29.656693,3.158142l13.542816,-30.268158l-28.021973,12.370514l10.738556,-34.479462l-24.519913,16.582184l7.003906,-35.269592l-24.287231,20.529541l1.634659,-38.426697l-20.662796,23.292969l-3.94857,-38.72226l-24.109779,21.216064l-4.952881,-34.616791l-18.495674,26.427994l-3.961029,-32.383255l-17.179264,28.661194l-8.913944,-32.755829l-10.236423,28.28891l-12.881367,-31.639008l-8.589853,31.639008l-17.172871,-27.91629l-2.314495,29.777832l-22.12607,-24.939499l-1.32217,31.266937l-20.473145,-22.705414l-3.030518,30.634109l0,0z" stroke-width="0.305544px" stroke="#000000" fill="none" id="path2902"/>
    <path d="m15.465889,469.64328c0,9.738678 -7.003899,17.634399 -15.648724,17.634399c-8.638236,0 -15.642447,-7.895721 -15.642447,-17.634399c0,-9.739624 7.00421,-17.63443 15.642447,-17.63443c8.644825,0 15.648724,7.894806 15.648724,17.63443z" stroke-width="0.9" stroke-miterlimit="4" stroke-dashoffset="0" stroke="#000000" fill-rule="nonzero" fill="#000000" id="path2904"/>
    <path d="m-7.058094,484.7258l4.971325,0.070007c0,0 -7.303761,79.042206 -29.074871,303.411285l-25.41993,-0.552246" stroke-width="0.34863px" stroke="#000000" fill-rule="evenodd" fill="#000000" id="path2906"/>
    <path d="m3.166296,484.462433l-5.087765,0.069702c0,0 10.505987,94.969086 32.368582,304.433868l23.417786,-1.607666" stroke-width="0.352735px" stroke="#000000" fill-rule="evenodd" fill="#000000" id="path2908"/>
   </g>
  </g>
 </g>
</svg>